<svg id="Calque_1" data-name="Calque 1" xmlns="http://www.w3.org/2000/svg" viewBox="0 0 364.51 137.3"><title>logo-header</title><path d="M124.74,43.26a33.35,33.35,0,0,0-1-8.16l38.63-30L121.2,28.29a28.53,28.53,0,0,0-1.43-2.6L143.84,5.36,114.66,20,90.19,41.31l25-13.33A31.56,31.56,0,0,1,87.9,74.75a31.24,31.24,0,0,1-6.16-.61l31.12-23.71-43,23.35a38.15,38.15,0,0,0,18,4.47C108.24,78.25,124.74,62.59,124.74,43.26Z" transform="translate(-7.28 -5.08)" style="fill:#005e9e"/><path d="M54.42,57.88a32.81,32.81,0,0,0,1.66,3L30.46,81.54,60.88,66.47l24.47-22L60.44,58.19A31.57,31.57,0,0,1,87.9,11.76a30.36,30.36,0,0,1,5.51.49l.24.3-31,23,43.26-22.78a39.59,39.59,0,0,0-18-4.46c-20.35,0-36.84,15.67-36.84,35a33.21,33.21,0,0,0,1,8L13.32,81.13Z" transform="translate(-7.28 -5.08)" style="fill:#005e9e"/><polygon points="54.71 62.77 41.16 76.74 61.2 67.33 92.32 42.03 54.71 62.77" style="fill:#005e9e"/><polygon points="106.42 13.41 119.55 0 100.05 8.85 69.5 33.46 106.42 13.41" style="fill:#005e9e"/><polygon points="9.12 98.42 3.83 88.98 0.28 88.98 0.28 109.51 3.6 109.51 3.6 95.05 9.03 104.5 9.12 104.5 14.57 94.99 14.57 109.51 17.95 109.51 17.95 88.98 14.37 88.98 9.12 98.42" style="fill:#005e9e"/><rect x="22.26" y="88.98" width="3.4" height="20.54" style="fill:#005e9e"/><polygon points="42.18 102.68 33.14 88.98 29.97 88.98 29.97 109.51 33.32 109.51 33.32 95.4 42.62 109.51 45.49 109.51 45.49 88.98 42.18 88.98 42.18 102.68" style="fill:#005e9e"/><polygon points="62.59 92.06 62.59 88.98 49.66 88.98 49.66 109.51 62.74 109.51 62.74 106.43 53.03 106.43 53.03 100.71 61.51 100.71 61.51 97.63 53.03 97.63 53.03 92.06 62.59 92.06" style="fill:#005e9e"/><path d="M80.35,102.83c-3.5-1.35-4.26-2.11-4.26-3.55v0c0-1.35,1.15-2.38,3-2.38a7.5,7.5,0,0,1,4.61,1.94l1.94-2.61a9.58,9.58,0,0,0-6.46-2.41c-3.81,0-6.51,2.38-6.51,5.75v.06c0,3.29,2,4.73,5.93,6.19,3.25,1.21,3.93,2.06,3.93,3.35v0c0,1.52-1.27,2.61-3.23,2.61a8,8,0,0,1-5.4-2.44l-2,2.55a10.69,10.69,0,0,0,7.42,3c3.84,0,6.66-2.32,6.66-5.93v-.06C85.92,105.88,84.16,104.3,80.35,102.83Z" transform="translate(-7.28 -5.08)" style="fill:#005e9e"/><path d="M103,94.06H96.39V114.6h3.4v-6.66h3c4.25-.06,7.6-2.44,7.6-7v0C110.36,96.64,107.45,94.06,103,94.06Zm3.94,7c0,2.29-1.53,3.85-4.14,3.85h-3V97.17h3c2.61,0,4.14,1.35,4.14,3.81Z" transform="translate(-7.28 -5.08)" style="fill:#005e9e"/><path d="M115,109.76h8l1.7,4.84h3.55l-7.54-20.66H117.4l-7.54,20.66h3.43Zm4-11.27,2.94,8.24h-5.87Z" transform="translate(-7.28 -5.08)" style="fill:#005e9e"/><path d="M145.47,100.63v-.12a6.19,6.19,0,0,0-1.7-4.51,7.56,7.56,0,0,0-5.48-1.94h-7.43V114.6h3.4v-7.25h3.29a.51.51,0,0,0,.21,0l4.37,7.28h3.93l-4.84-7.95A6,6,0,0,0,145.47,100.63Zm-3.43.12c0,2.14-1.47,3.55-4.11,3.55h-3.66V97.17H138c2.55,0,4,1.2,4,3.52v.06Z" transform="translate(-7.28 -5.08)" style="fill:#005e9e"/><rect x="141.77" y="88.98" width="3.4" height="20.54" style="fill:#005e9e"/><path d="M156.12,99.54v.06c0,3.29,2,4.73,5.93,6.19,3.25,1.21,3.93,2.06,3.93,3.35v0c0,1.52-1.27,2.61-3.23,2.61a8,8,0,0,1-5.4-2.44l-2,2.56a10.72,10.72,0,0,0,7.42,3c3.84,0,6.66-2.32,6.66-5.93v-.05c0-3-1.76-4.58-5.57-6-3.49-1.35-4.26-2.11-4.26-3.55v0c0-1.35,1.15-2.37,3-2.37a7.48,7.48,0,0,1,4.6,1.93l1.94-2.61a9.58,9.58,0,0,0-6.46-2.41C158.82,93.79,156.12,96.17,156.12,99.54Z" transform="translate(-7.28 -5.08)" style="fill:#005e9e"/><rect x="190.09" y="83.31" width="1.73" height="53.99" style="fill:#005e9e"/><path d="M242.74,94H228.11v42.61H233V118.83h9.71c8.2,0,13.3-5.23,13.3-12.46S250.94,94,242.74,94Zm-.12,20.27H233V98.56h9.59c5.49,0,8.32,3.36,8.32,7.87S248.11,114.31,242.62,114.31Z" transform="translate(-7.28 -5.08)" style="fill:#005e9e"/><path d="M278.35,113.6l-4.6-2.26c-3.79-1.87-6.68-3.29-6.68-7.16,0-4.2,3.53-6.2,7.37-6.2a11.3,11.3,0,0,1,9.53,5.35l3.59-2.77a15.32,15.32,0,0,0-13.05-7.23c-6.75,0-12.55,4.33-12.55,11.1,0,6,4.54,9,9.39,11.43l4.67,2.26c4.1,2,6.94,3.55,6.94,7.49,0,4.33-3.47,7.1-8.39,7.1-5.36,0-9.08-3.35-11.6-7.29l-3.66,2.77a17.42,17.42,0,0,0,15.32,9.17c7.7,0,13.43-4.71,13.43-11.88C288.06,119.74,284.41,116.57,278.35,113.6Z" transform="translate(-7.28 -5.08)" style="fill:#005e9e"/><polygon points="294.43 88.96 289.52 88.96 289.52 131.57 314.17 131.57 314.17 127.05 294.43 127.05 294.43 88.96" style="fill:#005e9e"/><path d="M329.08,93.78v41.31l0,0,0,0v1.35h1.35l0,0,0,0h41.31V93.78ZM369.15,95l-4.71,4.72A20.69,20.69,0,0,0,355.79,95Zm-8.29,29.41-2.18-2.18-1.3-4.63,2.3-1.69H370A9.27,9.27,0,0,1,360.86,124.43Zm7.94-2.59a19.34,19.34,0,0,1-4,6.55L362,125.56A10.43,10.43,0,0,0,368.8,121.84Zm-13.72-12.75h-.42l-.24-.78a9.27,9.27,0,0,1,3.44-2Zm2.8,0,3.23-3.23a9.2,9.2,0,0,1,6.63,3.23Zm4,5.25,6.38-4.67a9.15,9.15,0,0,1,1.73,4.67Zm.4-9.61L365,102a19.35,19.35,0,0,1,3.85,6.41A10.47,10.47,0,0,0,362.24,104.73Zm-23.34,9.61h-8a19.8,19.8,0,0,1,.9-5.18Zm-7.09-5.25a19.5,19.5,0,0,1,4.25-7.22l7.22,7.22Zm9.27,6.84,2.24,1.63-1.52,4.81-5.88,5.88a19.51,19.51,0,0,1-5-12.32Zm-3.9-15.18a19.48,19.48,0,0,1,13.12-5.2L346,109.09h-.51ZM345.09,95a20.69,20.69,0,0,0-8.8,4.85L331.45,95Zm-14.76,1.12,4.84,4.85a20.81,20.81,0,0,0-4.84,8.79Zm0,37.71V120.48a20.67,20.67,0,0,0,4.71,8.65Zm1.4,1.4,4.71-4.72a20.8,20.8,0,0,0,8.65,4.72Zm7.42-4.13,11.36-7.56c-.13,0-.26,0-.39,0a12.43,12.43,0,0,0-10.53,5.83l-.53,1.69-.27-.21,0,0-1-.79,0-.07-.45-.36,1.76-1.76a13.45,13.45,0,0,1,14.32-5.2A10.5,10.5,0,0,1,354,107l-3.61-11.45h.05a19.45,19.45,0,0,1,13.11,5.08l-4.08,4.08A10.36,10.36,0,0,0,354,107l.4,1.24a9.31,9.31,0,0,0,4.78,16l.42,1.26.17,0,3.92,3.91c-.34.32-.69.61-1.05.9v0l-1,.8,0,0-.34.25-.56-2a12.42,12.42,0,0,0-10.1-5.88l10.61,7.91a19.46,19.46,0,0,1-22.06-.36Zm16.64,4.13a20.81,20.81,0,0,0,8.79-4.85l4.85,4.85Zm14.76-1.12-4.85-4.85a20.73,20.73,0,0,0,4.85-8.81Zm0-24.33a20.64,20.64,0,0,0-4.71-8.66l4.71-4.72Z" transform="translate(-7.28 -5.08)" style="fill:#005e9e"/><path d="M359.63,125.63c-.24,0-.46-.09-.7-.13.31.26.6.55.89.83Z" transform="translate(-7.28 -5.08)" style="fill:#005e9e"/><polygon points="1.92 126.52 6.75 126.52 6.75 124.78 1.92 124.78 1.92 121.62 7.37 121.62 7.37 119.87 0 119.87 0 131.51 7.45 131.51 7.45 129.77 1.92 129.77 1.92 126.52" style="fill:#005e9e"/><polygon points="17.18 119.87 15.02 119.87 12.62 124.06 10.24 119.87 8.04 119.87 11.46 125.58 7.89 131.51 10.04 131.51 12.58 127.07 15.12 131.51 17.34 131.51 13.73 125.56 17.18 119.87" style="fill:#005e9e"/><polygon points="20.19 126.52 25.02 126.52 25.02 124.78 20.19 124.78 20.19 121.62 25.63 121.62 25.63 119.87 18.27 119.87 18.27 131.51 25.72 131.51 25.72 129.77 20.19 129.77 20.19 126.52" style="fill:#005e9e"/><path d="M39,135c-1.84,0-3.23-1.64-3.23-4.17v-.07c0-2.47,1.39-4.14,3.23-4.14a3.59,3.59,0,0,1,2.5,1.13l1.17-1.48A5.1,5.1,0,0,0,39,124.79c-3,0-5.23,2.41-5.23,5.93v.12c0,3.56,2.14,5.92,5.13,5.92a5.05,5.05,0,0,0,3.82-1.64l-1.13-1.37A3.57,3.57,0,0,1,39,135Z" transform="translate(-7.28 -5.08)" style="fill:#005e9e"/><path d="M50.25,132.2c0,1.85-.94,2.8-2.41,2.8s-2.42-1-2.42-2.86V125H43.48v7.2c0,3,1.72,4.63,4.33,4.63s4.36-1.57,4.36-4.69V125H50.25v7.25Z" transform="translate(-7.28 -5.08)" style="fill:#005e9e"/><polygon points="45.73 121.67 48.8 121.67 48.8 131.51 50.74 131.51 50.74 121.67 53.81 121.67 53.81 119.87 45.73 119.87 45.73 121.67" style="fill:#005e9e"/><rect x="54.9" y="119.87" width="1.94" height="11.64" style="fill:#005e9e"/><polygon points="62.74 128.67 59.87 119.87 57.76 119.87 61.82 131.58 63.61 131.58 67.65 119.87 65.61 119.87 62.74 128.67" style="fill:#005e9e"/><polygon points="70.41 126.52 75.24 126.52 75.24 124.78 70.41 124.78 70.41 121.62 75.86 121.62 75.86 119.87 68.49 119.87 68.49 131.51 75.94 131.51 75.94 129.77 70.41 129.77 70.41 126.52" style="fill:#005e9e"/><polygon points="84.33 126.52 89.15 126.52 89.15 124.78 84.33 124.78 84.33 121.62 89.77 121.62 89.77 119.87 82.41 119.87 82.41 131.51 89.86 131.51 89.86 129.77 84.33 129.77 84.33 126.52" style="fill:#005e9e"/><path d="M101.92,125H98.34V136.6h3.58c3.34,0,5.54-2.37,5.54-5.78v-.13C107.46,127.28,105.26,125,101.92,125Zm3.54,5.89c0,2.5-1.42,4-3.56,4h-1.62V126.7h1.62c2.14,0,3.56,1.53,3.56,4Z" transform="translate(-7.28 -5.08)" style="fill:#005e9e"/><path d="M115.35,132.2c0,1.85-.93,2.8-2.4,2.8s-2.42-1-2.42-2.86V125h-1.94v7.2c0,3,1.72,4.63,4.32,4.63s4.36-1.57,4.36-4.69V125h-1.92v7.25Z" transform="translate(-7.28 -5.08)" style="fill:#005e9e"/><path d="M123.64,135c-1.83,0-3.22-1.64-3.22-4.17v-.07c0-2.47,1.39-4.14,3.22-4.14a3.61,3.61,0,0,1,2.51,1.13l1.17-1.48a5.13,5.13,0,0,0-3.68-1.44c-3,0-5.23,2.41-5.23,5.93v.12c0,3.56,2.14,5.92,5.13,5.92a5.07,5.07,0,0,0,3.83-1.64l-1.14-1.37A3.56,3.56,0,0,1,123.64,135Z" transform="translate(-7.28 -5.08)" style="fill:#005e9e"/><path d="M131.75,124.89l-4.29,11.71h2l1-2.75h4.54l1,2.75h2l-4.29-11.71Zm-.77,7.25,1.67-4.68,1.67,4.68Z" transform="translate(-7.28 -5.08)" style="fill:#005e9e"/><polygon points="129.52 121.67 132.59 121.67 132.59 131.51 134.53 131.51 134.53 121.67 137.6 121.67 137.6 119.87 129.52 119.87 129.52 121.67" style="fill:#005e9e"/><rect x="138.69" y="119.87" width="1.94" height="11.64" style="fill:#005e9e"/><path d="M154.46,124.77c-3.06,0-5.19,2.48-5.19,5.94v.16c0,3.45,2.12,5.91,5.16,5.91s5.19-2.48,5.19-5.94v-.16C159.62,127.23,157.5,124.77,154.46,124.77Zm3.16,6.07c0,2.51-1.32,4.16-3.16,4.16s-3.19-1.68-3.19-4.18v-.11c0-2.51,1.32-4.16,3.16-4.16s3.19,1.68,3.19,4.17v.12Z" transform="translate(-7.28 -5.08)" style="fill:#005e9e"/><polygon points="160.57 127.64 155.42 119.87 153.62 119.87 153.62 131.51 155.52 131.51 155.52 123.51 160.82 131.51 162.46 131.51 162.46 119.87 160.57 119.87 160.57 127.64" style="fill:#005e9e"/></svg>